<svg xmlns="http://www.w3.org/2000/svg" viewBox="0 0 600 105.28"><defs><style>.cls-1{fill:#14171c;}</style></defs><title>cdltbisou-logo</title><g id="Calque_2" data-name="Calque 2"><g id="logo"><path class="cls-1" d="M41.16,28.54c7.61,0,17.5,1.58,30.12,10.9L61.53,55.08a29.39,29.39,0,0,0-19.36-7.32c-12.48,0-20.8,7.89-20.8,19.08s8.32,19.07,20.8,19.07A29.42,29.42,0,0,0,61.53,78.6l9.75,15.63c-12.62,9.33-22.51,10.9-30.12,10.9C15.92,105.13,0,88.64,0,66.84S15.92,28.54,41.16,28.54Z"/><path class="cls-1" d="M156.25,0V103.7H134.88V92.94c-5.31,7.6-12.33,12.34-23.09,12.34-22.38,0-35.86-17.21-35.86-38.73,0-20.65,12.48-38,35.43-38a29.48,29.48,0,0,1,23.52,11.62V0Zm-40,87.92c10.48,0,19.22-6.74,19.22-20.08,0-13.62-8.17-21.94-19.79-21.94S97.3,55.36,97.3,66.69C97.3,78.46,104.47,87.92,116.23,87.92Z"/><path class="cls-1" d="M172.39,103.7V0h21.37V103.7Z"/><path class="cls-1" d="M236.37,30.12h20.37V46.9H236.37V81.32c0,3.16,1.29,6.46,5.45,6.46s5.6-3.44,5.6-6.89a23.2,23.2,0,0,0-1-6.31h16.93a21.64,21.64,0,0,1,1.72,8.75c0,10.9-7.17,22-24.53,22-12.91,0-25.53-4.59-25.53-26V46.9H204V30.12h12.62l3.3-18.07h16.49Z"/><path class="cls-1" d="M288.4,103.7h-6.6V0h6.6V50.34c5-11.47,16.35-19.36,30.69-19.36,22.66,0,36.72,16.78,36.72,37,0,20.79-14.77,37.29-36.57,37.29-14.06,0-25.68-7.89-30.84-19.51ZM349.07,68c0-17.07-11.48-31.13-30-31.13S288.25,50.92,288.25,68c0,17.49,12.91,31.41,30.7,31.41C337,99.4,349.07,85.48,349.07,68Z"/><path class="cls-1" d="M374.38,1.72c3,0,5.17,2.3,5.17,5.74s-2.15,5.74-5.17,5.74-5.16-2.3-5.16-5.74S371.37,1.72,374.38,1.72Zm3.45,102h-6.6V32.56h6.6Z"/><path class="cls-1" d="M397.51,88.78C400.09,95.52,407.26,99,416,99s16.92-5,16.92-13.49c0-5.45-3.3-10.32-11.47-12.9l-10.62-3.3C402.53,67,393.92,62,393.92,50.63,393.92,41,401.67,31,416.3,31c8.31,0,17.21,4.59,20.51,13.48l-6,1.72c-2.58-6.45-8.75-8.89-14.48-8.89-10.19,0-15.64,6.74-15.64,13.34,0,7.6,6,10.9,11.91,12.62l10.75,3.3c11.62,3.59,16.35,10.9,16.35,18.93,0,12.34-11.18,19.8-23.66,19.8-11.62,0-21.09-5.45-24.67-14.78Z"/><path class="cls-1" d="M485.81,31c20.66,0,37.58,16.93,37.58,37.29s-16.92,37-37.58,37a37.15,37.15,0,1,1,0-74.3Zm0,68.42a31.13,31.13,0,0,0,30.84-31.13c0-17.21-13.91-31.41-30.84-31.41-16.63,0-30.55,14.2-30.55,31.41S469.18,99.4,485.81,99.4Z"/><path class="cls-1" d="M544.06,73.44c0,20.36,12.05,26,23.38,26,8.46,0,25.53-6.31,26-30.12V32.56H600V103.7h-6.6V87.35c-5,13.05-17.35,17.93-26.25,17.93-14.91,0-29.69-7.46-29.69-31.84V32.56h6.6Z"/></g></g></svg>